<svg width="59" height="85" viewBox="0 0 59 85" fill="none" xmlns="http://www.w3.org/2000/svg">
<path d="M52.7793 1.47274C52.2116 0.214127 50.7311 -0.345988 49.4725 0.221689C48.2139 0.789365 47.6538 2.26987 48.2214 3.52848L50.5004 2.50061L52.7793 1.47274ZM0.374288 68.6854C-0.352085 69.8596 0.0109499 71.4003 1.18515 72.1267L20.3199 83.9636C21.4941 84.69 23.0348 84.327 23.7611 83.1528C24.4875 81.9786 24.1245 80.4379 22.9503 79.7115L5.94166 69.1898L16.4634 52.1811C17.1898 51.0069 16.8267 49.4662 15.6525 48.7398C14.4783 48.0135 12.9376 48.3765 12.2112 49.5507L0.374288 68.6854ZM50.5004 2.50061L48.2214 3.52848C56.4041 21.6705 55.2833 34.8543 47.501 44.7759C39.5004 54.9759 24.0176 62.3621 1.927 67.5672L2.50037 70.0006L3.07373 72.434C25.4002 67.1732 42.3325 59.4667 51.4352 47.8618C60.7561 35.9786 61.4267 20.6452 52.7793 1.47274L50.5004 2.50061Z" fill="#888888"/>
</svg>
