<svg width="1074" height="362" viewBox="0 0 1074 362" fill="none" xmlns="http://www.w3.org/2000/svg">
<path d="M4.9093 291L44.4373 93.36H82.9893L122.517 291H89.0893L81.2813 245.372H46.8773L38.8253 291H4.9093ZM50.5373 222.436H77.3773L63.9573 139.476L50.5373 222.436ZM140.198 291V149.968H172.162V162.168C177.042 156.963 182.328 153.221 188.022 150.944C193.715 148.504 199.49 147.284 205.346 147.284C210.876 147.284 215.675 148.667 219.742 151.432C223.971 154.197 227.062 158.589 229.014 164.608C234.382 158.427 240.075 154.035 246.094 151.432C252.112 148.667 258.294 147.284 264.638 147.284C269.68 147.284 274.154 148.585 278.058 151.188C281.962 153.628 285.052 157.369 287.33 162.412C289.607 167.292 290.746 173.473 290.746 180.956V291H259.026V183.884C259.026 178.516 258.131 174.856 256.342 172.904C254.552 170.789 252.031 169.732 248.778 169.732C246.175 169.732 243.247 170.464 239.994 171.928C236.903 173.392 234.056 175.425 231.454 178.028C231.454 178.516 231.454 179.004 231.454 179.492C231.454 179.817 231.454 180.305 231.454 180.956V291H199.978V183.884C199.978 178.516 199.002 174.856 197.05 172.904C195.26 170.789 192.739 169.732 189.486 169.732C186.883 169.732 184.036 170.464 180.946 171.928C177.855 173.392 174.927 175.425 172.162 178.028V291H140.198ZM376.09 293.196C370.885 293.196 366.005 291.976 361.45 289.536C356.896 287.096 352.666 284.087 348.762 280.508V291H315.578V93.36H348.762V160.704C352.829 156.8 357.221 153.709 361.938 151.432C366.818 148.992 372.024 147.772 377.554 147.772C383.898 147.772 389.104 149.236 393.17 152.164C397.237 155.092 400.409 158.996 402.686 163.876C404.964 168.593 406.509 173.717 407.322 179.248C408.298 184.616 408.786 189.821 408.786 194.864V242.688C408.786 251.96 407.648 260.419 405.37 268.064C403.256 275.709 399.758 281.809 394.878 286.364C390.161 290.919 383.898 293.196 376.09 293.196ZM363.402 270.016C366.981 270.016 369.584 268.877 371.21 266.6C373 264.16 374.138 260.988 374.626 257.084C375.277 253.017 375.602 248.625 375.602 243.908V193.4C375.602 189.008 375.277 185.104 374.626 181.688C373.976 178.109 372.756 175.263 370.966 173.148C369.34 171.033 366.737 169.976 363.158 169.976C360.556 169.976 358.034 170.627 355.594 171.928C353.154 173.067 350.877 174.368 348.762 175.832V264.892C350.877 266.356 353.154 267.576 355.594 268.552C358.197 269.528 360.8 270.016 363.402 270.016ZM432.348 291V149.968H465.532V171.684C470.412 163.388 475.292 157.451 480.172 153.872C485.052 150.131 490.42 148.26 496.276 148.26C497.252 148.26 498.065 148.341 498.716 148.504C499.529 148.504 500.424 148.585 501.4 148.748V183.152C499.448 182.339 497.252 181.688 494.812 181.2C492.534 180.549 490.176 180.224 487.736 180.224C483.344 180.224 479.358 181.281 475.78 183.396C472.201 185.511 468.785 189.008 465.532 193.888V291H432.348ZM559.859 293.196C549.285 293.196 540.664 291.244 533.995 287.34C527.325 283.273 522.364 277.417 519.111 269.772C516.02 261.964 514.475 252.611 514.475 241.712V199.256C514.475 188.032 516.02 178.597 519.111 170.952C522.364 163.307 527.325 157.532 533.995 153.628C540.827 149.724 549.448 147.772 559.859 147.772C571.083 147.772 579.785 149.887 585.967 154.116C592.311 158.345 596.784 164.527 599.387 172.66C602.152 180.631 603.535 190.391 603.535 201.94V221.948H547.415V249.764C547.415 254.319 547.821 258.06 548.635 260.988C549.611 263.916 551.075 266.031 553.027 267.332C554.979 268.633 557.337 269.284 560.103 269.284C563.031 269.284 565.389 268.633 567.179 267.332C568.968 265.868 570.269 263.835 571.083 261.232C571.896 258.467 572.303 255.051 572.303 250.984V239.272H603.291V248.788C603.291 263.103 599.712 274.083 592.555 281.728C585.397 289.373 574.499 293.196 559.859 293.196ZM547.415 205.6H572.303V192.18C572.303 187.3 571.896 183.396 571.083 180.468C570.269 177.377 568.968 175.181 567.179 173.88C565.389 172.416 562.868 171.684 559.615 171.684C556.687 171.684 554.328 172.416 552.539 173.88C550.749 175.344 549.448 177.784 548.635 181.2C547.821 184.616 547.415 189.496 547.415 195.84V205.6ZM668.753 293.196C658.505 293.196 650.047 291.325 643.377 287.584C636.708 283.68 631.665 278.068 628.249 270.748C624.996 263.428 623.369 254.563 623.369 244.152V196.816C623.369 186.405 624.996 177.54 628.249 170.22C631.665 162.9 636.708 157.369 643.377 153.628C650.047 149.724 658.505 147.772 668.753 147.772C679.001 147.772 687.46 149.724 694.129 153.628C700.961 157.369 706.004 162.9 709.257 170.22C712.673 177.54 714.381 186.405 714.381 196.816V244.152C714.381 254.563 712.673 263.428 709.257 270.748C706.004 278.068 700.961 283.68 694.129 287.584C687.46 291.325 679.001 293.196 668.753 293.196ZM668.997 270.26C672.739 270.26 675.504 269.203 677.293 267.088C679.083 264.973 680.221 262.127 680.709 258.548C681.197 254.807 681.441 250.74 681.441 246.348V194.62C681.441 190.228 681.197 186.243 680.709 182.664C680.221 179.085 679.083 176.239 677.293 174.124C675.504 171.847 672.739 170.708 668.997 170.708C665.256 170.708 662.491 171.847 660.701 174.124C658.912 176.239 657.692 179.085 657.041 182.664C656.553 186.243 656.309 190.228 656.309 194.62V246.348C656.309 250.74 656.553 254.807 657.041 258.548C657.692 262.127 658.912 264.973 660.701 267.088C662.491 269.203 665.256 270.26 668.997 270.26ZM737.092 291V149.968H770.276V164.12C775.319 159.24 780.606 155.336 786.136 152.408C791.83 149.317 797.93 147.772 804.436 147.772C810.292 147.772 814.928 149.236 818.344 152.164C821.76 154.929 824.282 158.671 825.908 163.388C827.535 168.105 828.348 173.229 828.348 178.76V291H795.164V185.348C795.164 181.119 794.514 177.865 793.212 175.588C791.911 173.311 789.39 172.172 785.648 172.172C783.371 172.172 780.85 172.823 778.084 174.124C775.482 175.425 772.879 177.052 770.276 179.004V291H737.092Z" fill="white"/>
<path d="M953.041 81.5706L1057.7 96.3587L1074 234.381L1056.56 266.232L1010.68 290.121L895.405 290.5L870 214.284L897.68 153.615L925.74 94.0836L934.84 89.5334L953.041 81.5706Z" fill="#FF9800"/>
<path d="M941.665 136.173L934.84 89.5334L953.041 81.5706L1057.7 96.3587L1008.78 144.136L941.665 136.173Z" fill="#EF6C00"/>
<path d="M1052.01 189.638L1055.04 144.136L1034.57 172.195L1052.01 189.638Z" fill="#EF6C00"/>
<path d="M1048.97 233.623L1056.56 266.232L895.405 290.5L955.695 229.831L1048.97 233.623Z" fill="#EF6C00"/>
<path d="M1048.97 233.623L1052.01 189.258L1035.32 171.058L992.855 231.348L1048.97 233.623Z" fill="#E65100"/>
<path d="M969.346 174.849L941.665 136.173L897.68 153.615L925.74 94.0836L934.84 89.5334L941.665 136.173L1008.78 144.136L969.346 174.849Z" fill="#E65100"/>
<path d="M870 214.284L955.695 229.831L895.405 290.5L1056.56 266.232L1010.68 290.121L895.405 290.5L870 214.284Z" fill="#E65100"/>
<path d="M1074 234.381L1056.56 266.232L1048.97 233.623L1057.7 96.3587L1074 234.381Z" fill="#F57C00"/>
<path d="M992.855 231.348L1008.78 144.136L1035.32 171.058L992.855 231.348Z" fill="#F57C00"/>
<path d="M955.695 229.831L969.346 174.849L941.666 136.173L955.695 229.831Z" fill="#F57C00"/>
</svg>
